<?xml version="1.0" encoding="utf-8"?>
<svg xmlns="http://www.w3.org/2000/svg" viewBox="0 0 500 140" width="500px" xmlns:bx="https://boxy-svg.com" height="140px"><defs><bx:export><bx:file format="svg"/></bx:export></defs><g transform="matrix(0.016168, 0, 0, -0.016168, -16.397512, 225.944641)" fill="#000000" stroke="none" style=""><path d="M18310 9645 l0 -3835 2195 0 2195 0 0 915 0 915 -1085 0 -1085 0 0 -195 0 -195 890 0 890 0 0 -530 0 -530 -1805 0 -1805 0 0 3450 0 3450 170 0 170 0 0 -3280 0 -3280 195 0 195 0 0 3475 0 3475 -560 0 -560 0 0 -3835z" style="fill: rgb(83, 133, 187);"/><path d="M19800 10005 l0 -3475 1075 0 1075 0 0 200 0 200 -880 0 -880 0 0 3275 0 3275 -195 0 -195 0 0 -3475z" style="fill: rgb(83, 133, 187);"/><path d="M2040 13275 l0 -195 2055 -2 2055 -3 -1011 -1925 c-556 -1059 -1200 -2285 -1431 -2725 -231 -440 -489 -930 -573 -1090 -84 -159 -209 -398 -279 -531 -69 -132 -126 -243 -126 -247 0 -4 102 -6 228 -5 l227 3 65 125 c36 69 114 220 174 335 60 116 130 251 156 300 26 50 134 257 240 460 106 204 220 424 255 490 106 203 187 361 650 1250 246 473 476 914 510 980 35 66 147 282 250 480 103 198 220 423 260 500 489 938 1035 1988 1035 1991 0 2 -1066 4 -2370 4 l-2370 0 0 -195z" style="fill: rgb(83, 133, 187);"/><path d="M7182 13453 c-57 -108 -347 -662 -387 -738 -29 -55 -479 -914 -1000 -1910 -521 -995 -969 -1850 -995 -1900 -26 -49 -123 -234 -215 -410 -92 -176 -191 -365 -220 -420 -53 -100 -155 -295 -387 -738 -66 -127 -186 -355 -265 -506 -78 -150 -143 -275 -143 -277 0 -2 608 -4 1350 -4 l1350 0 0 195 0 195 -1031 0 -1031 0 65 123 c35 67 117 223 182 347 64 124 137 261 160 305 24 44 123 233 220 420 98 187 206 394 240 460 35 66 386 737 780 1490 395 754 950 1816 1235 2360 286 545 522 998 525 1008 7 16 -7 17 -209 17 -195 0 -216 -2 -224 -17z" style="fill: rgb(83, 133, 187);"/><path d="M25080 9635 l0 -3835 648 0 c357 0 784 3 950 7 l302 6 0 1561 0 1561 128 161 c70 89 510 647 979 1240 468 594 1084 1373 1367 1732 284 359 516 655 516 657 0 3 -109 5 -242 4 l-243 0 -1170 -1476 c-643 -812 -1295 -1633 -1447 -1825 l-278 -349 0 -1449 0 -1450 -565 0 -565 0 0 3645 0 3645 -190 0 -190 0 0 -3835z" style="fill: rgb(83, 133, 187);"/><path d="M25820 11719 l0 -1751 132 168 c72 93 160 205 195 249 l63 80 0 1303 0 1302 185 0 185 0 0 -1061 0 -1061 195 243 195 243 0 1018 0 1018 -575 0 -575 0 0 -1751z" style="fill: rgb(83, 133, 187);"/><path d="M28909 13257 c-91 -116 -612 -786 -1159 -1487 -1052 -1349 -1211 -1553 -1652 -2119 l-278 -356 0 -1412 0 -1413 195 0 195 0 0 1353 0 1352 816 1045 c449 575 1133 1451 1521 1948 l704 902 715 0 c455 0 714 -4 712 -10 -1 -5 -303 -391 -669 -857 -1607 -2045 -2397 -3052 -2403 -3062 -4 -7 47 -85 120 -184 71 -94 185 -248 254 -342 267 -362 333 -451 829 -1120 281 -379 566 -765 634 -857 l122 -168 238 0 c130 0 237 2 237 5 0 5 -342 471 -725 990 -45 61 -234 317 -420 570 -186 253 -368 501 -405 550 -36 50 -142 192 -234 317 -109 148 -165 232 -160 240 5 7 679 870 1499 1918 820 1048 1567 2002 1660 2120 92 118 181 232 197 253 l30 37 -1204 0 -1203 0 -166 -213z" style="fill: rgb(83, 133, 187);"/><path d="M10100 11033 c0 -1557 4 -2461 10 -2538 84 -988 483 -1727 1180 -2188 190 -126 504 -266 763 -341 118 -34 355 -84 510 -106 204 -30 330 -40 612 -46 720 -18 1302 90 1790 331 192 95 316 172 449 280 616 501 960 1223 1026 2150 6 86 10 1047 10 2508 l0 2367 -195 0 -195 0 0 -2407 c0 -1590 -4 -2447 -10 -2523 -52 -567 -226 -1049 -524 -1444 -336 -446 -811 -713 -1466 -825 -370 -63 -812 -75 -1240 -35 -715 67 -1279 301 -1668 693 -362 364 -565 827 -649 1481 -16 124 -18 318 -20 2408 l-4 2272 545 0 545 0 4 -2212 c3 -1686 6 -2232 16 -2293 64 -416 197 -693 434 -904 294 -261 678 -382 1217 -382 102 0 228 5 280 11 841 97 1353 579 1440 1355 6 57 10 873 10 2258 l0 2167 175 0 175 0 0 -2169 c0 -1464 -4 -2212 -11 -2298 -66 -786 -446 -1314 -1109 -1537 -155 -52 -304 -87 -475 -113 -153 -22 -703 -26 -860 -5 -566 75 -988 282 -1256 614 -242 301 -360 644 -389 1128 -6 97 -10 965 -10 2113 l0 1947 -190 0 -190 0 0 -2032 c0 -2035 2 -2135 36 -2378 74 -517 299 -972 629 -1270 228 -205 555 -366 905 -444 274 -61 481 -80 870 -80 351 0 504 12 756 59 462 87 819 269 1084 553 296 316 477 712 562 1228 l23 139 2 2463 3 2462 -555 0 -555 0 -3 -2382 c-2 -2202 -4 -2390 -20 -2475 -97 -518 -420 -815 -987 -908 -229 -38 -595 -28 -820 22 -452 99 -687 334 -782 780 l-23 108 -3 2428 -2 2427 -925 0 -925 0 0 -2417z" style="fill: rgb(83, 133, 187);"/><path d="M2040 12185 l0 -565 1058 0 1057 0 98 195 97 195 -960 0 -960 0 0 180 0 180 1250 0 c688 0 1250 -4 1250 -8 0 -4 -67 -136 -149 -292 -578 -1107 -2029 -3882 -2163 -4140 -91 -173 -219 -418 -285 -545 -388 -744 -722 -1383 -770 -1472 l-54 -103 2765 0 2766 0 0 925 0 925 -1017 -2 -1018 -3 -97 -185 c-54 -102 -98 -188 -98 -192 0 -5 414 -8 920 -8 l920 0 0 -540 0 -540 -2255 0 c-1240 0 -2255 1 -2255 3 0 4 378 726 2516 4805 503 958 914 1745 914 1747 0 3 -794 5 -1765 5 l-1765 0 0 -565z" style="fill: rgb(83, 133, 187);"/><path d="M28692 9239 c-104 -131 -119 -156 -108 -169 7 -8 192 -258 411 -555 424 -574 826 -1118 1039 -1405 71 -96 166 -224 211 -285 45 -60 166 -224 269 -363 103 -139 189 -259 192 -267 5 -13 -80 -15 -692 -15 l-699 1 -41 57 c-23 31 -161 219 -308 417 -146 198 -305 412 -351 475 -170 231 -309 420 -775 1049 l-475 642 -3 -316 -2 -317 235 -316 c130 -174 329 -443 443 -597 113 -154 290 -392 392 -530 188 -253 385 -518 585 -787 l109 -148 1179 0 c648 0 1177 4 1175 8 -1 5 -203 278 -448 606 -245 329 -521 700 -615 826 -211 284 -763 1025 -1225 1645 -193 259 -357 476 -364 483 -11 11 -34 -12 -134 -139z" style="fill: rgb(83, 133, 187);"/></g><ellipse style="fill: rgb(48, 73, 101);" cx="258.639" cy="125.486" rx="5.095" ry="5.095"/></svg>